<?xml version="1.0" encoding="UTF-8" standalone="no"?>
<!-- Created with Inkscape (http://www.inkscape.org/) -->

<svg
   xmlns:osb="http://www.openswatchbook.org/uri/2009/osb"
   xmlns:dc="http://purl.org/dc/elements/1.1/"
   xmlns:cc="http://creativecommons.org/ns#"
   xmlns:rdf="http://www.w3.org/1999/02/22-rdf-syntax-ns#"
   xmlns:svg="http://www.w3.org/2000/svg"
   xmlns="http://www.w3.org/2000/svg"
   xmlns:sodipodi="http://sodipodi.sourceforge.net/DTD/sodipodi-0.dtd"
   xmlns:inkscape="http://www.inkscape.org/namespaces/inkscape"
   width="512"
   height="512"
   viewBox="0 0 135.46666 135.46667"
   version="1.1"
   id="svg8"
   inkscape:version="0.92.3 (2405546, 2018-03-11)"
   sodipodi:docname="logo.svg"
   inkscape:export-filename="D:\git\gatsby-apollo-typescript-starter\frontend\src\images\logo.png"
   inkscape:export-xdpi="96"
   inkscape:export-ydpi="96">
  <defs
     id="defs2">
    <linearGradient
       id="linearGradient2393"
       osb:paint="solid">
      <stop
         style="stop-color:#ff6600;stop-opacity:1;"
         offset="0"
         id="stop2391" />
    </linearGradient>
  </defs>
  <sodipodi:namedview
     id="base"
     pagecolor="#ffffff"
     bordercolor="#666666"
     borderopacity="1.0"
     inkscape:pageopacity="0.0"
     inkscape:pageshadow="2"
     inkscape:zoom="0.7"
     inkscape:cx="-521.66989"
     inkscape:cy="174.98408"
     inkscape:document-units="mm"
     inkscape:current-layer="layer1"
     showgrid="false"
     units="px"
     inkscape:window-width="1896"
     inkscape:window-height="1052"
     inkscape:window-x="0"
     inkscape:window-y="0"
     inkscape:window-maximized="1" />
  <metadata
     id="metadata5">
    <rdf:RDF>
      <cc:Work
         rdf:about="">
        <dc:format>image/svg+xml</dc:format>
        <dc:type
           rdf:resource="http://purl.org/dc/dcmitype/StillImage" />
        <dc:title />
      </cc:Work>
    </rdf:RDF>
  </metadata>
  <g
     inkscape:label="Layer 1"
     inkscape:groupmode="layer"
     id="layer1"
     transform="translate(30.88913,-192.42244)">
    <circle
       style="fill:#ffffff;fill-opacity:1;fill-rule:nonzero;stroke:none;stroke-width:0.2217657"
       id="path2444"
       cx="45.688747"
       cy="249.11316"
       r="56.772018"
       inkscape:export-xdpi="96"
       inkscape:export-ydpi="96" />
    <path
       id="path815"
       d="m 45.688751,194.5588 c -30.131469,0 -54.5543672,24.42288 -54.5543672,54.55436 0,30.13147 24.4228982,54.55437 54.5543672,54.55437 30.131467,0 54.554369,-24.4229 54.554369,-54.55437 0,-30.13148 -24.422902,-54.55436 -54.554369,-54.55436 z M 2.8570272,249.68053 45.121386,291.94487 C 21.911776,291.64373 3.1581659,272.89013 2.8570272,249.68053 Z M 55.277224,290.87561 3.9262923,239.52469 c 4.355621,-19.04167 21.3984047,-33.252 41.7624587,-33.252 14.23214,0 26.845111,6.9437 34.635473,17.62762 l -5.931151,5.23285 c -6.319577,-9.06038 -16.820201,-14.99152 -28.704322,-14.99152 -15.1312,0 -28.019123,9.61028 -32.889736,23.06121 l 44.800043,44.79568 c 10.880322,-3.941 19.246781,-13.12362 22.048692,-24.49709 H 61.081808 v -8.38828 h 27.451756 c -0.0044,20.36405 -14.214683,37.40684 -33.25634,41.76245 z"
       inkscape:connector-curvature="0"
       style="fill:#744c9e;stroke-width:0.04364351"
       inkscape:export-xdpi="96"
       inkscape:export-ydpi="96" />
    <path
       transform="translate(4.9999999e-7,1.3125e-6)"
       style="fill:#007acc;fill-opacity:1;stroke:#fffffc;stroke-width:1;stroke-miterlimit:4;stroke-dasharray:none;stroke-opacity:1"
       inkscape:connector-curvature="0"
       class="st1"
       d="m -26.27361,271.10051 v 5.31847 h 16.9668951 v 48.29038 H 2.7332515 V 276.41898 H 19.700147 v -5.22059 c 0,-2.93659 0,-5.31847 -0.130517,-5.38372 0,-0.0979 -10.3432772,-0.13052 -22.9053086,-0.13052 l -22.8400504,0.0979 v 5.3511 z m 76.253122,-5.44898 c 3.328133,0.78309 5.873154,2.28401 8.157169,4.66588 1.207259,1.30515 3.001829,3.58916 3.132345,4.17648 0,0.19576 -5.644757,4.01331 -9.070758,6.13417 -0.130517,0.0979 -0.65257,-0.45679 -1.174637,-1.30513 -1.696689,-2.41452 -3.426002,-3.45864 -6.134175,-3.65442 -3.915445,-0.26103 -6.525738,1.79459 -6.525738,5.22058 0,1.04412 0.195775,1.63144 0.587325,2.47978 0.880967,1.79458 2.512398,2.87134 7.569832,5.09007 9.331791,4.01333 13.377754,6.65624 15.824883,10.44116 2.773434,4.24172 3.393379,10.89797 1.533556,15.89015 -2.088238,5.44899 -7.178302,9.13601 -14.454478,10.34328 -2.284014,0.39155 -7.504586,0.32629 -9.95174,-0.0979 -5.220585,-0.97886 -10.21276,-3.58916 -13.27986,-6.9499 -1.207259,-1.30515 -3.523883,-4.79642 -3.393378,-5.02483 l 1.239894,-0.78308 4.894293,-2.83869 3.687035,-2.15349 0.848345,1.142 c 1.076742,1.6967 3.491272,3.98069 4.894293,4.76379 4.241724,2.18612 9.919117,1.89246 12.725172,-0.65257 1.207259,-1.10938 1.729325,-2.28401 1.729325,-3.91544 0,-1.50091 -0.228397,-2.18612 -0.978862,-3.32812 -1.044119,-1.43567 -3.132346,-2.61029 -9.005501,-5.22058 -6.754135,-2.87134 -9.625448,-4.69852 -12.300998,-7.50459 -1.533551,-1.6967 -2.936584,-4.33961 -3.589155,-6.52572 -0.489431,-1.89246 -0.652569,-6.52574 -0.195774,-8.38557 1.403033,-6.52573 6.329963,-11.09373 13.37774,-12.39889 2.284015,-0.45679 7.667739,-0.26102 9.919106,0.3263 z"
       id="path2462"
       inkscape:export-xdpi="96"
       inkscape:export-ydpi="96" />
  </g>
  <style
     id="style842">.st0{fill:#007acc}.st1{fill:#fff}</style>
  <style
     id="style2458">.st0{fill:#007acc}.st1{fill:#fff}</style>
</svg>
